<svg xmlns="http://www.w3.org/2000/svg" viewBox="0 0 131.84 58.21"><defs><style>.cls-1{fill:#fff;}</style></defs><title>Asset 1</title><g id="Layer_2" data-name="Layer 2"><g id="Layer_3_copy" data-name="Layer 3 copy"><polygon class="cls-1" points="39.74 0 39.74 6.89 33.65 13.03 13.03 13.03 13.03 24.76 22.03 24.76 17.58 29.25 24.82 36.49 12.38 36.49 12.38 57.99 0 57.99 0 0 39.74 0"/><g id="_" data-name="&lt;"><polygon class="cls-1" points="36.49 31.9 60.33 56.42 46.87 56.42 26.95 36.49 29.07 36.49 21.82 29.24 26.26 24.76 24.14 24.76 35.77 13.03 37.88 13.03 39.74 11.15 39.74 9.02 46.62 2.08 60.37 2.08 36.49 27.1 36.49 24.93 34.09 27.44 32.09 29.53 34.11 31.6 36.49 34.05 36.49 31.9"/><path class="cls-1" d="M35.77,13,24.14,24.76h2.12L37.88,13Zm0,0L24.14,24.76h2.12L37.88,13Zm.72,16.72v4.3L56.78,54.92H47.5L29.07,36.49H24.82L46.25,57.92H63.88ZM46,.58,39.74,6.89v4.26l7.5-7.57h9.63L36.49,24.93v4.34L63.88.58ZM33.65,13,22,24.76h4.23L37.88,13Z"/></g><g id="_2" data-name="&lt;"><polygon class="cls-1" points="70.02 56.42 42.85 29.25 69.76 2.08 83.52 2.08 57.32 29.52 83.47 56.42 70.02 56.42"/><path class="cls-1" d="M87,.58H69.14L40.73,29.25,69.4,57.92H87L59.4,29.51ZM70.64,54.92,45,29.24,70.39,3.58H80L57.23,27.44l-2,2.09,2,2.07L79.92,54.92Z"/></g><path id="B" class="cls-1" d="M119.66,28.28s10.27-.07,10.08-13.43-12-13.56-12-13.56H88V34h24.33a7.51,7.51,0,0,1,6.25,3.15,5.66,5.66,0,0,1,.36,6.12,8.13,8.13,0,0,1-7.29,4.3H88V58.21h28.92a17.31,17.31,0,0,0,6.88-1.53c4.22-2.32,8-5.89,8-14.71C131.85,28.71,119.66,28.28,119.66,28.28Zm-3.45-7a7.32,7.32,0,0,1-5.85,2.83H100V12.29h10.61a7.22,7.22,0,0,1,6,3C118,17.28,117.71,19.29,116.21,21.3Z"/></g></g></svg>