<?xml version="1.0" encoding="utf-8"?>
<!-- Generator: Adobe Illustrator 23.0.0, SVG Export Plug-In . SVG Version: 6.00 Build 0)  -->
<svg version="1.1" id="Layer_1" xmlns="http://www.w3.org/2000/svg" xmlns:xlink="http://www.w3.org/1999/xlink" x="0px" y="0px"
	 viewBox="0 0 131.8 58.2" style="enable-background:new 0 0 131.8 58.2;" xml:space="preserve">
<style type="text/css">
	.st0{fill:#E9B300;}
</style>
<title>Asset 1</title>
<g>
	<g id="Layer_3_copy">
		<polygon class="st0" points="39.7,0 39.7,6.9 33.7,13 13,13 13,24.8 22,24.8 17.3,31.3 24.8,36.5 12.4,36.5 12.4,58 0,58 0,0 		
			"/>
		<g id="_">
			<polygon class="st0" points="36.5,31.9 60.3,56.4 46.9,56.4 27,36.5 29.1,36.5 21.5,30.9 27.6,24.5 21.7,24.8 33.7,13 37,9.5 
				39.7,6.9 39.7,9 46.6,2.1 60.4,2.1 36.5,27.1 36.5,24.9 34.1,27.4 32.1,29.5 34.1,31.6 36.5,34 			"/>
			<path class="st0" d="M35.8,13L24.1,24.8h2.1L37.9,13H35.8z M35.8,13L24.1,24.8h2.1L37.9,13H35.8z M36.5,29.7V34l20.3,20.9h-9.3
				L29.1,36.5h-4.2l21.4,21.4h17.6L36.5,29.7z M46,0.6l-6.3,6.3v4.3l7.5-7.6h9.6L36.5,24.9v4.3L63.9,0.6H46z M33.7,13L22,24.8
				l5.4-0.3L37.9,13H33.7z"/>
		</g>
		<g id="_2">
			<polygon class="st0" points="70,56.4 42.8,29.2 69.8,2.1 83.5,2.1 57.3,29.5 83.5,56.4 			"/>
			<path class="st0" d="M87,0.6H69.1L40.7,29.2l28.7,28.7H87L59.4,29.5L87,0.6z M70.6,54.9L45,29.2L70.4,3.6H80L57.2,27.4l-2,2.1
				l2,2.1l22.7,23.3H70.6z"/>
		</g>
		<path id="B" class="st0" d="M119.7,28.3c0,0,10.3-0.1,10.1-13.4s-12-13.6-12-13.6H88V34h24.3c2.5,0,4.8,1.1,6.2,3.2
			c1.3,1.8,1.5,4.2,0.4,6.1c-1.4,2.7-4.2,4.3-7.3,4.3H88v10.6h28.9c2.4,0,4.7-0.6,6.9-1.5c4.2-2.3,8-5.9,8-14.7
			C131.9,28.7,119.7,28.3,119.7,28.3z M116.2,21.3c-1.4,1.8-3.6,2.9-5.8,2.8H100V12.3h10.6c2.4,0,4.6,1.1,6,3
			C118,17.3,117.7,19.3,116.2,21.3L116.2,21.3z"/>
	</g>
</g>
</svg>
