<?xml version="1.0" encoding="utf-8"?>
<!-- Generator: Adobe Illustrator 23.0.0, SVG Export Plug-In . SVG Version: 6.00 Build 0)  -->
<svg version="1.1" xmlns="http://www.w3.org/2000/svg" xmlns:xlink="http://www.w3.org/1999/xlink" x="0px" y="0px"
	 viewBox="0 0 494.1 61.4" enable-background="new 0 0 494.1 61.4" xml:space="preserve">
<g id="Layer_1" display="none">
	<g id="Layer_2" display="inline">
		<rect x="-80.2" y="-117.3" fill="#020202" width="574" height="337"/>
	</g>
	
		<image display="inline" overflow="visible" width="460" height="200" xlink:href="logo-flashback-200pxh.png"  transform="matrix(1 0 0 1 -28.1862 -45.2679)">
	</image>
</g>
<g id="Layer_5" display="none">
	<rect x="-33.2" y="-86.2" display="inline" stroke="#FFFFFF" stroke-miterlimit="10" width="640.3" height="248.9"/>
</g>
<g id="Layer_3" display="none">
	<g display="inline">
		<polygon fill="#020202" points="245.5,30.3 257.5,16.2 257.5,17 246.1,30.3 262.8,47.4 263.2,47.8 262.5,47.8 262.4,47.7 		"/>
		<polygon fill="#020202" points="257.5,1.6 270,1.6 257.5,16.2 		"/>
		<polygon fill="#020202" points="257.5,47.8 262.5,47.8 271.4,58.5 257.5,58.5 		"/>
		<polygon fill="#020202" points="273.1,59.7 255.6,59.7 227.6,30 255.8,0.9 271.3,0.8 270.7,1.6 270,1.6 270.2,1.3 256,1.4 
			228.3,30 255.8,59.2 272,59.2 271.4,58.5 272.1,58.5 		"/>
		<path fill="#FFFFFF" d="M263.1,47l-16.3-16.8l10.7-12.5v-1.5l-12,14l16.9,17.4l0.1,0.1h1.3L263.1,47z M272.7,58.5h-1.3l0.6,0.7
			h-16.2L228.3,30L256,1L270.2,1L270,1.2h1.3l1.1-1.2L255.6,0l-28.7,30l28.5,30.2h18.8L272.7,58.5z"/>
	</g>
	<g display="inline">
		<path fill="#FFFFFF" d="M219,29.8l28.9-30.3h-19.8l-12.3,12.4v1.4l0.4-0.4l12.4-12.5h17l-27.9,29.3l27.9,28.7h-16.8l-12.6-12.6
			l-0.4-0.4V47l12.6,12.6h19.5L219,29.8z"/>
	</g>
	<polygon id="F" display="inline" fill="#FCFCFC" points="0,1.3 0,59.3 12.4,59.3 12.4,37.7 36.5,37.7 36.5,26 13,26 13,14.3 
		39.7,14.3 39.7,1.3 	"/>
	<polygon id="L" display="inline" fill="#FFFFFF" points="43.9,1.3 43.9,59.3 73.4,59.3 78.2,47.5 56.9,47.5 56.9,1.3 	"/>
	<polygon id="A_1_" display="inline" fill="#FFFFFF" points="78.2,59.3 104.7,1.3 132.5,59.3 118.2,59.3 105.3,30.3 92.1,59.3 	"/>
	<polygon id="A" display="inline" fill="#FFFFFF" points="300.1,58.4 326,0.3 353.2,58.4 339.2,58.4 326.6,29.4 313.7,58.4 	"/>
	<path id="S" display="inline" fill="#FFFFFF" d="M163.8,16.2l9.1-9.6c0,0-23.8-17.2-36.9,3.5c-1.5,2.4-2.2,6.6-1.7,9.3
		c1.7,8.5,6,12.4,14.6,15.6c7.5,2.8,9.8,4.4,9.9,7.5c0.1,1,0.8,9.4-8.3,9c-10-0.5-10.2-8-10.2-8l-7.8,10c0,0,2.6,7.8,19.3,7.8
		s21.1-12.1,21.1-16.7c0-5.2,2.6-15.2-20.2-20.6C140.3,20.8,149.9,3.6,163.8,16.2z"/>
	<polygon display="inline" fill="#FFFFFF" points="200.7,29.3 215.8,13.4 215.8,45.5 	"/>
	<polygon id="H" display="inline" fill="#FFFFFF" points="215.8,1.3 215.8,11.9 215.4,12.3 199.3,29.2 215.5,46.6 215.8,47 
		215.8,59.3 202.4,59.3 202.4,34.5 188.5,34.5 188.5,59.3 175.9,59.3 175.9,1.3 187.2,1.3 187.2,23.6 203.3,23.6 203.3,1.3 	"/>
	<path id="B" display="inline" fill="#FFFFFF" d="M257.5,1.6v14.7L270,1.6H257.5z M289.1,28.6c0,0,10.3-0.1,10.1-13.4
		c-0.2-13.4-12-13.6-12-13.6h-15.9l-13.9,16.2v16.5h24.3c2.5,0,4.9,1.1,6.2,3.2c1.3,2,1.4,4,0.4,6.1c-1.4,2.7-4.3,4.3-7.3,4.3h-17.3
		l8.9,10.7h13.7c2.4,0,5.5-0.8,6.9-1.5c4.2-2.3,8-5.9,8-14.7C301.3,29,289.1,28.6,289.1,28.6z M285.7,21.6c-1.4,1.8-3.6,2.8-5.9,2.8
		h-10.4V12.6H280c2.4,0,4.7,1,6,3C287.4,17.6,287.2,19.6,285.7,21.6z M257.5,47.8v10.7h14l-8.9-10.7H257.5z M257.5,1.6v14.7L270,1.6
		H257.5z M262.5,47.8h-5v10.7h14L262.5,47.8z M257.5,1.6v14.7L270,1.6H257.5z M257.5,1.6v14.7L270,1.6H257.5z"/>
	<path id="C" display="inline" fill="#FFFFFF" d="M386.6,15.6l9.4-7.4c0,0-7.8-8.2-22.1-8.2c-13.5,0-26.9,14.9-26.3,29.4
		s9.1,28.1,25.8,29.4c13.9,1,23.9-8.5,23.9-8.5l-9.1-9c0,0-5.6,7.4-13.2,7.4s-15.8-7.4-16.1-18.9s8-18.6,15-18.9
		C380.9,10.6,386.6,15.6,386.6,15.6z"/>
	<polygon id="K" display="inline" fill="#FFFFFF" points="413.7,1.6 401.2,1.6 401.2,59 413.7,59 413.7,37.2 435.5,59 452.8,59 
		425.4,30.3 452.8,1.6 436.3,1 414.5,24.2 	"/>
	<polygon display="inline" fill="#FCFCFC" points="461.2,1.1 479.3,1.1 451.3,30.3 479.3,59.1 461.4,59.1 432.4,30.1 	"/>
</g>
<g id="Layer_3_copy">
	<polygon id="F_1_" fill="#FFFFFF" points="0,1.3 0,59.3 12.4,59.3 12.4,37.7 36.5,37.7 36.5,26 13,26 13,14.3 39.7,14.3 39.7,1.3 	
		"/>
	<polygon id="L_1_" fill="#FFFFFF" points="43.9,1.3 43.9,59.3 73.4,59.3 78.2,47.5 56.9,47.5 56.9,1.3 	"/>
	<polygon id="A_2_" fill="#FFFFFF" points="78.2,59.3 104.7,1.3 132.5,59.3 118.2,59.3 105.3,30.3 92.1,59.3 	"/>
	<polygon id="A_3_" fill="#FFFFFF" points="316.3,58.9 342.2,0.8 369.4,58.9 355.4,58.9 342.8,29.8 329.9,58.9 	"/>
	<path id="S_1_" fill="#FFFFFF" d="M163.8,16.2l9.1-9.6c0,0-23.8-17.2-36.9,3.5c-1.5,2.4-2.2,6.6-1.7,9.3c1.7,8.5,6,12.4,14.6,15.6
		c7.5,2.8,9.8,4.4,9.9,7.5c0.1,1,0.8,9.4-8.3,9c-10-0.5-10.2-8-10.2-8l-7.8,10c0,0,2.6,7.8,19.3,7.8s21.1-12.1,21.1-16.7
		c0-5.2,2.6-15.2-20.2-20.6C140.3,20.8,149.9,3.6,163.8,16.2z"/>
	<g id="_x3C_">
		<polygon fill="#FFFFFF" points="254.7,57.6 227.5,30.4 254.5,3.2 268.2,3.2 242,30.7 268.2,57.6 		"/>
		<path fill="#FFFFFF" d="M264.7,4.7l-22.8,23.9l-2,2.1l2,2.1l22.7,23.3h-9.3l-25.7-25.7l25.4-25.7H264.7 M271.7,1.7h-17.9
			l-28.4,28.7l28.7,28.7h17.6l-27.6-28.4L271.7,1.7L271.7,1.7z"/>
	</g>
	<polygon fill="#FFFFFF" points="215.8,21 215.8,39.7 206.5,30.4 	"/>
	<polygon fill="#FFFFFF" points="215.8,1.3 215.8,16.7 202.3,30.4 215.8,43.9 215.8,59.3 202.4,59.3 202.4,34.5 188.5,34.5 
		188.5,59.3 175.9,59.3 175.9,1.3 187.2,1.3 187.2,23.6 203.3,23.6 203.3,1.3 	"/>
	<path id="B_1_" fill="#FFFFFF" d="M305.3,29c0,0,10.3-0.1,10.1-13.4c-0.2-13.4-12-13.6-12-13.6h-29.8v32.7l24.3,0
		c2.4,0,4.9,1.1,6.3,3.1c1.3,2,1.4,4,0.4,6.1c-1.4,2.7-4.3,4.3-7.3,4.3h-23.7V59h28.9c2.4,0,5.5-0.8,6.9-1.5c4.2-2.3,8-5.9,8-14.7
		C317.5,29.5,305.3,29,305.3,29z M301.8,22c-1.4,1.8-3.6,2.8-5.8,2.8h-10.4V13l10.6,0c2.4,0,4.7,1,6,3C303.6,18,303.3,20,301.8,22z"
		/>
	<g id="_x3C__2_">
		<polygon fill="#FFFFFF" points="218.9,30.7 245,57.6 231.6,57.6 215.8,41.8 215.8,39.7 206.5,30.4 215.8,21 215.8,18.9 231.3,3.2 
			245.1,3.2 		"/>
		<path fill="#FCFCFC" d="M248.6,1.7h-17.9l-14.9,15V21l16.1-16.3h9.6l-22.8,23.9l-2,2.1l2,2.1l22.7,23.3h-9.3l-16.4-16.4v4.2
			l15.1,15.1h17.6l-27.6-28.4L248.6,1.7z"/>
	</g>
	<polygon id="_x3C__1_" fill="#FFFFFF" points="476.2,2.2 494.1,2.2 466.5,31.1 494.1,59.5 476.5,59.5 447.8,30.9 	"/>
	<path id="C_1_" fill="#FFFFFF" d="M402.8,16.1l9.4-7.4c0,0-7.8-8.2-22.1-8.2c-13.5,0-26.9,14.9-26.3,29.4s9.1,28.1,25.8,29.4
		c13.9,1,23.9-8.5,23.9-8.5l-9.1-9c0,0-5.6,7.4-13.2,7.4c-7.5,0-15.8-7.4-16.1-18.9c-0.3-11.4,8-18.6,15-18.9
		C397.1,11.1,402.8,16.1,402.8,16.1z"/>
	<polygon id="K_1_" fill="#FFFFFF" points="429.9,2 417.4,2 417.4,59.5 429.9,59.5 429.9,37.7 451.7,59.5 469,59.5 441.6,30.8 
		469,2 452.4,1.5 430.7,24.7 	"/>
</g>
<g id="Layer_3_copy_2" display="none">
	<polygon display="inline" fill="none" stroke="#020202" stroke-miterlimit="10" points="0,1.3 0,59.3 12.4,59.3 12.4,37.7 
		36.5,37.7 36.5,26 13,26 13,14.3 39.7,14.3 39.7,1.3 	"/>
	<polygon display="inline" fill="none" stroke="#020202" stroke-miterlimit="10" points="43.9,1.3 43.9,59.3 73.4,59.3 78.2,47.5 
		56.9,47.5 56.9,1.3 	"/>
	<polygon display="inline" fill="none" stroke="#020202" stroke-miterlimit="10" points="78.2,59.3 104.7,1.3 132.5,59.3 
		118.2,59.3 105.3,30.3 92.1,59.3 	"/>
	<polygon display="inline" fill="none" stroke="#020202" stroke-miterlimit="10" points="300.1,58.4 326,0.3 353.2,58.4 339.2,58.4 
		326.6,29.4 313.7,58.4 	"/>
	<path display="inline" fill="none" stroke="#020202" stroke-miterlimit="10" d="M163.8,16.2l9.1-9.6c0,0-23.8-17.2-36.9,3.5
		c-1.5,2.4-2.2,6.6-1.7,9.3c1.7,8.5,6,12.4,14.6,15.6c7.5,2.8,9.8,4.4,9.9,7.5c0.1,1,0.8,9.4-8.3,9c-10-0.5-10.2-8-10.2-8l-7.8,10
		c0,0,2.6,7.8,19.3,7.8s21.1-12.1,21.1-16.7c0-5.2,2.6-15.2-20.2-20.6C140.3,20.8,149.9,3.6,163.8,16.2z"/>
	<polygon display="inline" fill="none" stroke="#020202" stroke-miterlimit="10" points="256.5,-4.3 277.9,-4.3 244.8,30.3 
		277.9,64.4 256.8,64.4 222.4,30 	"/>
	<polygon display="inline" fill="none" stroke="#020202" stroke-miterlimit="10" points="175.9,1.3 187.2,1.3 187.2,23.6 
		203.3,23.6 203.3,1.3 215.8,1.3 215.8,59.3 202.4,59.3 202.4,34.5 188.5,34.5 188.5,59.3 175.9,59.3 	"/>
	<path display="inline" fill="none" stroke="#020202" stroke-miterlimit="10" d="M257.5,1.6v32.7l24.3,0c2.4,0,4.9,1.1,6.3,3.1
		c1.3,2,1.4,4,0.4,6.1c-1.4,2.7-4.3,4.3-7.3,4.3h-23.7v10.7h28.9c2.4,0,5.5-0.8,6.9-1.5c4.2-2.3,8-5.9,8-14.7
		c0-13.3-12.2-13.7-12.2-13.7l0,0c0,0,10.3-0.1,10.1-13.4c-0.2-13.4-12-13.6-12-13.6H257.5z"/>
	<path display="inline" fill="none" stroke="#020202" stroke-miterlimit="10" d="M269.4,12.6v11.8l10.4,0c2.3,0,4.5-1,5.8-2.8
		c1.5-2,1.8-4,0.4-6c-1.3-1.9-3.6-3-6-3L269.4,12.6z"/>
	<path display="inline" fill="none" stroke="#020202" stroke-miterlimit="10" d="M386.6,15.6l9.4-7.4c0,0-7.8-8.2-22.1-8.2
		c-13.5,0-26.9,14.9-26.3,29.4s9.1,28.1,25.8,29.4c13.9,1,23.9-8.5,23.9-8.5l-9.1-9c0,0-5.6,7.4-13.2,7.4s-15.8-7.4-16.1-18.9
		s8-18.6,15-18.9C380.9,10.6,386.6,15.6,386.6,15.6z"/>
	<polygon display="inline" fill="none" stroke="#020202" stroke-miterlimit="10" points="413.7,1.6 401.2,1.6 401.2,59 413.7,59 
		413.7,37.2 435.5,59 452.8,59 425.4,30.3 452.8,1.6 436.3,1 414.5,24.2 	"/>
</g>
</svg>
