<?xml version="1.0" encoding="utf-8"?>
<!-- Generator: Adobe Illustrator 23.0.0, SVG Export Plug-In . SVG Version: 6.00 Build 0)  -->
<svg version="1.1" id="Layer_1" xmlns="http://www.w3.org/2000/svg" xmlns:xlink="http://www.w3.org/1999/xlink" x="0px" y="0px"
	 viewBox="0 0 336.7 126.2" style="enable-background:new 0 0 336.7 126.2;" xml:space="preserve">
<style type="text/css">
	.st0{display:none;fill:#303030;}
	.st1{fill:#FFFFFF;}
</style>
<rect class="st0" width="792" height="187.8"/>
<g id="ROKU">
	<path class="st1" d="M323.4,36.3v73.3c-1.1,0-2.1-0.1-3.2,0c-1.5,0.2-2.5-0.4-3.6-1.3c-3-2.7-6-5.2-9.1-7.9
		c-0.2-0.2-0.4-0.3-0.7-0.5c-0.8,0.8-1.4,1.6-2.2,2.3c-5.4,4.8-11.6,7.9-18.8,8.7c-7.7,0.9-15.1-0.2-21.9-4.1
		c-6.2-3.6-9.9-9.1-11.5-16.1c-0.6-2.6-0.8-5.2-0.8-7.8c0-14,0-28,0-42.1v-0.9c-10.5,10.5-21,21.1-31.6,31.6
		c12.5,12.5,25.2,25.2,37.9,37.8c0,0.1-0.1,0.2-0.2,0.3h-0.8c-9.8,0-19.6,0-29.4,0c-0.6,0-1.1-0.2-1.5-0.6
		c-9.5-9.5-19-18.9-28.6-28.3c-0.3-0.3-0.5-0.6-0.7-0.9c-0.1,0.1-0.2,0.1-0.3,0.2v29.6h-24.9V36.2h24.8v28.7c0.1,0,0.1,0.1,0.2,0.1
		c0.2-0.2,0.5-0.4,0.7-0.6c9.1-9.1,18.3-18.3,27.4-27.4c0.5-0.5,0.9-0.7,1.6-0.7c16.4,0,32.8,0,49.1,0h1.1v1.1c0,13.4,0,26.8,0,40.2
		c0,2.9,0.2,5.8,1.2,8.6c1.3,3.8,3.7,5.5,7.7,5.6c5.9,0.1,10-2.8,12.9-7.7c0.2-0.3,0.2-0.8,0.2-1.2c0-15.2,0-30.4,0-45.5
		c0-0.3,0-0.7,0-1.1C298.4,36.3,323.4,36.3,323.4,36.3z"/>
	<path class="st1" d="M73.2,72.9c0.3-0.2,0.6-0.4,0.8-0.5c3.4-2.1,6.5-4.7,9-7.8c5.8-7.3,8-15.4,5.5-24.5
		c-2.1-7.5-6.8-13.1-13.2-17.4c-7.1-4.8-15.1-6.8-23.6-6.8c-11.5,0-23.1,0-34.6,0h-0.9v93.7h24.9V78.4c2.3,0,4.5,0,6.6,0
		c0.8,0,1.2,0.3,1.6,0.8c7.1,9.9,14.3,19.8,21.4,29.7c0.4,0.6,0.8,0.8,1.5,0.8c8.7,0,17.5,0,26.2,0c0.3,0,0.6,0,1-0.1
		C90.7,97.3,82,85.2,73.2,72.9z M51.1,62.7c-3.1,0.4-6.3,0.2-9.4,0.2c-0.6,0-0.5-0.4-0.5-0.8v-15c0-4.9,0-9.9,0-14.8
		c0-0.8,0.2-1,0.9-0.9c2.8,0.1,5.5,0,8.3,0.2C56.6,32,62,36.4,63.9,42.5C66.8,51.7,60.7,61.4,51.1,62.7z"/>
	<path class="st1" d="M128.1,34.7c-21.1-0.1-38.4,17-38.4,38.1s17,38.3,38.3,38.3s38.6-17,38.6-38.1
		C166.5,51.2,148.7,34.6,128.1,34.7z M137.4,86.2c-1,2-2.3,3.7-4.1,5c-3.4,2.6-7.4,2.6-10.6-0.2c-2.9-2.4-4.5-5.6-5.6-9.1
		c-0.9-3-1.3-6-1.3-9.7c0.1-4.6,1.1-9.6,3.9-14c0.9-1.5,2.1-2.8,3.5-3.8c3.2-2.4,6.9-2.3,10.1,0.1c2.8,2.2,4.6,5.1,5.7,8.4
		C141.4,70.9,141.1,78.7,137.4,86.2z"/>
</g>
</svg>
