<?xml version="1.0" encoding="utf-8"?>
<!-- Generator: Adobe Illustrator 23.0.0, SVG Export Plug-In . SVG Version: 6.00 Build 0)  -->
<svg version="1.1" id="Layer_1" xmlns="http://www.w3.org/2000/svg" xmlns:xlink="http://www.w3.org/1999/xlink" x="0px" y="0px"
	 viewBox="0 0 35 35" style="enable-background:new 0 0 35 35;" xml:space="preserve">
<style type="text/css">
	.st0{fill:#4D2E7E;}
</style>
<path class="st0" d="M35,30.2c0,2.3-1.7,3.4-3.3,3.4c-1.3,0-2.6-0.8-2.6-2.4c0-1.6,1.8-3.1,3.7-3.1c0.2,0,0.5,0,0.7,0.1v-6.3
	l-8.8,1.8v7.9c0,2.3-1.7,3.4-3.3,3.4c-1.3,0-2.5-0.8-2.5-2.3c0-1.6,1.8-3.1,3.7-3.1c0.2,0,0.5,0,0.7,0.1v-9.5L35,17.5V30.2z
	 M16,20.4c-2.4,0-4.4-2-4.4-4.4s2-4.4,4.4-4.4s4.4,2,4.4,4.4S18.5,20.4,16,20.4z M16,19c1.6,0,2.9-1.3,2.9-2.9s-1.3-2.9-2.9-2.9
	s-2.9,1.3-2.9,2.9S14.4,19,16,19z M13.4,22.8c-1.9-0.7-3.4-2.2-4.1-4.1l-1.5,0.2c0.9,2.5,2.9,4.6,5.4,5.4
	C13.2,24.3,13.4,22.8,13.4,22.8z M6.3,19.1l-1.5,0.2c1.1,3.9,4.1,6.9,8,8l0.2-1.5C9.8,24.8,7.3,22.3,6.3,19.1z M18.7,9.3
	c1.9,0.7,3.4,2.2,4.1,4.1l1.5-0.2c-0.9-2.5-2.9-4.6-5.4-5.4C18.9,7.8,18.7,9.3,18.7,9.3z M16.1,32.1c0.1-1.1,0.6-2.1,1.3-3
	c-0.4,0-0.9,0.1-1.3,0.1C8.8,29.2,2.9,23.3,2.9,16S8.8,2.9,16,2.9c7.2,0,13,5.8,13.1,12.9l2.9-0.6C31.6,6.7,24.6,0,16,0
	C7.2,0,0,7.2,0,16S7.2,32.1,16.1,32.1L16.1,32.1z M19.2,4.8l-0.2,1.5c3.2,1,5.7,3.5,6.7,6.7l1.5-0.2C26.1,9,23.1,5.9,19.2,4.8z"/>
</svg>
