<?xml version="1.0" encoding="utf-8"?>
<!-- Generator: Adobe Illustrator 23.0.0, SVG Export Plug-In . SVG Version: 6.00 Build 0)  -->
<svg version="1.1" id="Layer_1" xmlns="http://www.w3.org/2000/svg" xmlns:xlink="http://www.w3.org/1999/xlink" x="0px" y="0px"
	 viewBox="0 0 35 32" style="enable-background:new 0 0 35 32;" xml:space="preserve">
<style type="text/css">
	.st0{fill:#4D2E7E;}
</style>
<path class="st0" d="M32.1,0v2.9h-2.9V0h-2.9v5.8H8.8V0H5.8v2.9H2.9V0H0v32h2.9v-2.9h2.9V32h2.9v-5.8h17.5V32h2.9v-2.9h2.9V32H35V0
	H32.1z M5.8,26.2H2.9v-2.9h2.9V26.2z M5.8,20.4H2.9v-2.9h2.9V20.4z M5.8,14.5H2.9v-2.9h2.9V14.5z M5.8,8.7H2.9V5.8h2.9V8.7z
	 M26.2,21.8H8.8V10.2h17.5V21.8z M32.1,26.2h-2.9v-2.9h2.9V26.2z M32.1,20.4h-2.9v-2.9h2.9V20.4z M32.1,14.5h-2.9v-2.9h2.9V14.5z
	 M32.1,8.7h-2.9V5.8h2.9V8.7z"/>
</svg>
