<svg xmlns="http://www.w3.org/2000/svg" width="147.456" height="25.79" viewBox="0 0 147.456 25.79">
  <g id="Group_12" data-name="Group 12" transform="translate(-17.464 -342.854)">
    <path id="iconmonstr-star" d="M12.468.587,16.279,8.45l8.657,1.2-6.3,6.055,1.538,8.6-7.705-4.122L4.762,24.3,6.3,15.7,0,9.646l8.657-1.2Z" transform="translate(48.554 343.413)" fill="#4d2e7e" stroke="#fff" stroke-width="1"/>
    <path id="iconmonstr-star-2" data-name="iconmonstr-star" d="M12.468.587,16.279,8.45l8.657,1.2-6.3,6.055,1.538,8.6-7.705-4.122L4.762,24.3,6.3,15.7,0,9.646l8.657-1.2Z" transform="translate(18.554 343.413)" fill="#4d2e7e" stroke="#fff" stroke-width="1"/>
    <path id="iconmonstr-star-3" data-name="iconmonstr-star" d="M12.468.587,16.279,8.45l8.657,1.2-6.3,6.055,1.538,8.6-7.705-4.122L4.762,24.3,6.3,15.7,0,9.646l8.657-1.2Z" transform="translate(78.108 343.413)" fill="#4d2e7e" stroke="#fff" stroke-width="1"/>
    <path id="iconmonstr-star-4" data-name="iconmonstr-star" d="M12.468.587,16.279,8.45l8.657,1.2-6.3,6.055,1.538,8.6-7.705-4.122L4.762,24.3,6.3,15.7,0,9.646l8.657-1.2Z" transform="translate(108.894 343.413)" fill="none" stroke="#fff" stroke-width="1"/>
    <path id="iconmonstr-star-5" data-name="iconmonstr-star" d="M12.468.587,16.279,8.45l8.657,1.2-6.3,6.055,1.538,8.6-7.705-4.122L4.762,24.3,6.3,15.7,0,9.646l8.657-1.2Z" transform="translate(138.894 343.413)" fill="none" stroke="#fff" stroke-width="1"/>
  </g>
</svg>
